<?xml version="1.0" standalone="no"?>
<!DOCTYPE svg PUBLIC "-//W3C//DTD SVG 20010904//EN"
 "http://www.w3.org/TR/2001/REC-SVG-20010904/DTD/svg10.dtd">
<svg version="1.0" xmlns="http://www.w3.org/2000/svg"
 width="512.000000pt" height="512.000000pt" viewBox="0 0 512.000000 512.000000"
 preserveAspectRatio="xMidYMid meet">
<metadata>
Created by potrace 1.11, written by Peter Selinger 2001-2013
</metadata>
<g transform="translate(0.000000,512.000000) scale(0.100000,-0.100000)"
fill="#000000" stroke="none">
<path d="M667 4800 c-124 -15 -161 -56 -177 -191 -7 -53 -9 -565 -8 -1402 l3
-1319 483 379 483 378 -4 990 c-3 746 -7 1002 -16 1038 -16 58 -56 100 -113
117 -52 15 -550 23 -651 10z"/>
<path d="M2256 4799 c-128 -17 -162 -56 -176 -211 -10 -97 -14 -1448 -5 -1448
3 0 221 169 485 376 l480 377 0 301 c-1 338 -11 483 -37 529 -41 69 -140 88
-468 86 -115 -1 -241 -6 -279 -10z"/>
<path d="M3898 4800 c-155 -12 -201 -46 -219 -160 -5 -37 -8 -216 -7 -410 l3
-344 475 -373 475 -373 3 653 c3 864 -3 934 -89 978 -68 34 -383 48 -641 29z"/>
<path d="M2553 2902 l-482 -377 0 -950 c-1 -969 3 -1101 37 -1160 10 -17 38
-41 67 -55 l50 -25 330 0 330 0 50 25 c67 34 84 67 96 187 6 59 8 626 7 1415
l-3 1316 -482 -376z"/>
<path d="M3662 1898 c4 -1517 2 -1463 62 -1515 51 -43 92 -48 421 -48 338 0
383 6 428 54 52 55 51 32 54 1121 l3 1015 -467 365 c-256 201 -475 371 -485
378 -18 13 -19 -16 -16 -1370z"/>
<path d="M962 1653 l-483 -378 4 -405 c4 -435 7 -462 56 -511 44 -44 87 -50
356 -56 371 -8 476 10 517 89 32 62 39 236 36 956 l-3 683 -483 -378z"/>
</g>
</svg>
