<?xml version="1.0" encoding="utf-8"?>
<!-- Generator: Adobe Illustrator 22.1.0, SVG Export Plug-In . SVG Version: 6.00 Build 0)  -->
<svg version="1.1" id="Layer_1" xmlns:sketch="http://www.bohemiancoding.com/sketch/ns"
	 xmlns="http://www.w3.org/2000/svg" xmlns:xlink="http://www.w3.org/1999/xlink" x="0px" y="0px" viewBox="0 0 116 22"
	 style="enable-background:new 0 0 116 22;" xml:space="preserve">
<style type="text/css">
	.st0{fill:#FFFFFF;}
</style>
<title>Libraries.io logo white</title>
<description>Created with Sketch (http://www.bohemiancoding.com/sketch)</description>
<g>
	<g>
		<g>
			<path class="st0" d="M2.8,5.2c0-0.5,0-0.8-0.1-1c0-0.2-0.1-0.3-0.3-0.3c-0.2,0-0.5-0.1-1-0.1c-0.5,0-0.8,0-1,0.1
				C0.3,4,0.2,4.1,0.1,4.2c0,0.2-0.1,0.5-0.1,1v7l2.8-2.2V5.2z"/>
			<path class="st0" d="M0.1,14v1.3v0.2c0,0.5,0,0.8,0.1,1c0,0.2,0.1,0.3,0.3,0.3c0.2,0,0.5,0.1,1,0.1c0.5,0,0.8,0,1-0.1
				c0.2,0,0.3-0.1,0.3-0.3c0-0.2,0.1-0.5,0.1-1v-2.3v-1.3L0.1,14z"/>
			<path class="st0" d="M4.6,10.4v4.9c0,0.5,0,0.8,0.1,1c0,0.2,0.1,0.3,0.3,0.3c0.2,0,0.5,0.1,1,0.1c0.5,0,0.8,0,1-0.1
				c0.2,0,0.3-0.1,0.3-0.3c0-0.2,0.1-0.5,0.1-1V8.2L4.6,10.4z"/>
			<path class="st0" d="M7.3,5.3V5.2c0-0.5,0-0.8-0.1-1C7.2,4.1,7.1,4,7,3.9c-0.2,0-0.5-0.1-1-0.1c-0.5,0-0.8,0-1,0.1
				C4.8,4,4.7,4.1,4.6,4.2c0,0.2-0.1,0.5-0.1,1v2.3v1.2l2.8-2.2V5.3z"/>
			<path class="st0" d="M11.9,10.4v4.9c0,0.5,0,0.8-0.1,1c0,0.2-0.1,0.3-0.3,0.3c-0.2,0-0.5,0.1-1,0.1c-0.5,0-0.8,0-1-0.1
				c-0.2,0-0.3-0.1-0.3-0.3c0-0.2-0.1-0.5-0.1-1V8.2L11.9,10.4z"/>
			<path class="st0" d="M9.1,5.3V5.2c0-0.5,0-0.8,0.1-1c0-0.2,0.1-0.3,0.3-0.3c0.2,0,0.5-0.1,1-0.1c0.5,0,0.8,0,1,0.1
				c0.2,0,0.3,0.1,0.3,0.3c0,0.2,0.1,0.5,0.1,1v2.3v1.2L9.1,6.5V5.3z"/>
		</g>
	</g>
	<g>
		<path class="st0" d="M27.2,14.5V17h-8.9V4.3h2.6v10.2H27.2z"/>
		<path class="st0" d="M28.7,5.2c0-0.8,0.7-1.5,1.5-1.5c0.8,0,1.5,0.7,1.5,1.5s-0.7,1.5-1.5,1.5C29.4,6.7,28.7,6.1,28.7,5.2z
			 M31.5,17H29V7.9h2.5V17z"/>
		<path class="st0" d="M43.5,12.4c0,2.8-2,4.8-4.3,4.8c-1.2,0-2.2-0.5-2.9-1.4L36.2,17H34V3.4h2.5v5.3C37.1,8,38,7.6,39.1,7.6
			C41.6,7.6,43.5,9.6,43.5,12.4z M41,12.4c0-1.5-1-2.5-2.4-2.5c-1.4,0-2.4,1-2.4,2.5c0,1.5,1,2.5,2.4,2.5C40,14.9,41,13.9,41,12.4z"
			/>
		<path class="st0" d="M51.4,7.8l-0.6,2.4C50.4,10,50,10,49.7,10c-1.1,0-2.1,0.7-2.1,2v5H45V7.9h2.3l0.1,1.3C48,8.2,49,7.6,50.2,7.6
			C50.6,7.6,51,7.7,51.4,7.8z"/>
		<path class="st0" d="M60.6,11.5V17h-2.2l-0.1-1.2c-0.7,1-1.9,1.4-3.1,1.4c-1.6,0-3.2-1-3.2-2.9c0-2.1,1.9-2.9,3.7-2.9
			c0.7,0,1.6,0.1,2.4,0.3v-0.2c0-1.2-0.7-1.8-2-1.8c-0.9,0-1.8,0.3-2.6,0.9l-0.9-1.8c1-0.7,2.4-1.3,4.1-1.3
			C59.3,7.6,60.6,8.9,60.6,11.5z M58.1,13.4c-0.7-0.2-1.4-0.3-2-0.3c-0.9,0-1.6,0.3-1.6,1.1c0,0.7,0.5,1,1.3,1
			C57,15.2,58.1,14.5,58.1,13.4z"/>
		<path class="st0" d="M69.1,7.8l-0.6,2.4C68.1,10,67.7,10,67.4,10c-1.1,0-2.1,0.7-2.1,2v5h-2.5V7.9H65l0.1,1.3
			c0.6-0.9,1.6-1.5,2.8-1.5C68.3,7.6,68.8,7.7,69.1,7.8z"/>
		<path class="st0" d="M70.5,5.2c0-0.8,0.7-1.5,1.5-1.5s1.5,0.7,1.5,1.5S72.9,6.7,72,6.7S70.5,6.1,70.5,5.2z M73.3,17h-2.5V7.9h2.5
			V17z"/>
		<path class="st0" d="M79.9,15.1c0.9,0,1.6-0.3,2.2-0.9l1.6,1.6c-0.9,0.9-2.3,1.4-3.7,1.4c-2.8,0-5-1.9-5-4.8
			c0-2.8,1.9-4.8,4.8-4.8c3,0,4.5,2.1,4.5,4.3c0,0.3-0.1,1-0.1,1.4h-6.6C77.9,14.4,78.7,15.1,79.9,15.1z M77.6,11.6h4.3
			c-0.1-1.1-0.8-1.8-2.1-1.8C78.6,9.8,77.9,10.5,77.6,11.6z"/>
		<path class="st0" d="M85.6,16l0.8-1.8c0.8,0.7,2.3,1,3.5,1c0.7,0,1.6-0.1,1.6-0.9c0-0.5-0.7-0.7-1.8-0.9C87.5,13,86,12.6,86,10.7
			c0-2.4,2.2-3,4.1-3c1.4,0,2.7,0.4,3.6,1.1l-0.8,1.8c-0.7-0.5-1.8-0.8-2.9-0.8c-1,0-1.5,0.3-1.5,0.9c0,0.4,0.3,0.5,1.4,0.7
			c2.2,0.4,4,0.8,4,2.8c0,2-1.7,3.1-4.2,3.1C88.4,17.2,86.6,16.8,85.6,16z"/>
		<path class="st0" d="M95.7,15.7c0-0.9,0.7-1.6,1.6-1.6c0.9,0,1.6,0.7,1.6,1.6c0,0.9-0.7,1.6-1.6,1.6S95.7,16.5,95.7,15.7z"/>
		<path class="st0" d="M100.7,5.2c0-0.8,0.7-1.5,1.5-1.5s1.5,0.7,1.5,1.5s-0.7,1.5-1.5,1.5S100.7,6.1,100.7,5.2z M103.4,17h-2.5V7.9
			h2.5V17z"/>
		<path class="st0" d="M105.2,12.4c0-2.8,2.1-4.8,4.9-4.8s4.9,2,4.9,4.8c0,2.8-2.1,4.8-4.9,4.8S105.2,15.3,105.2,12.4z M112.5,12.4
			c0-1.5-0.9-2.5-2.4-2.5c-1.4,0-2.4,1-2.4,2.5c0,1.5,0.9,2.5,2.4,2.5C111.5,14.9,112.5,13.9,112.5,12.4z"/>
	</g>
</g>
</svg>
