<svg width="1000" height="200" viewBox="0 0 1000 200" fill="none" xmlns="http://www.w3.org/2000/svg">
<path d="M31.8249 20.7386C31.8249 16.4591 31.825 13.8914 30.9691 12.1796C30.9691 10.4678 30.1132 9.61194 28.4014 9.61194C26.6896 9.61194 24.1219 8.75604 19.8424 8.75604C15.5629 8.75604 12.9952 8.75604 11.2834 9.61194C10.4276 10.4678 9.57166 11.3237 8.71576 12.1796C8.71576 13.8914 7.85986 16.4591 7.85986 20.7386V80.6513L31.8249 61.8216V20.7386Z" fill="white"/>
<path d="M8.71582 96.0574V108.896C8.71582 113.175 8.71582 115.743 9.57172 117.455C9.57172 119.167 10.4276 120.023 12.1394 120.023C13.8512 120.023 16.4189 120.878 20.6984 120.878C24.9778 120.878 27.5455 120.878 29.2573 120.023C30.9691 120.023 31.825 119.167 31.825 117.455C31.825 115.743 32.6809 113.175 32.6809 108.896V78.0836L8.71582 96.0574Z" fill="white"/>
<path d="M47.2311 65.2452V107.184C47.2311 111.464 47.2311 114.031 48.087 115.743C48.087 117.455 48.9429 118.311 50.6547 118.311C52.3665 118.311 54.9341 119.167 59.2136 119.167C63.4931 119.167 66.0608 119.167 67.7726 118.311C69.4844 118.311 70.3403 117.455 70.3403 115.743C70.3403 114.031 71.1962 111.464 71.1962 107.184V46.4155L47.2311 65.2452Z" fill="white"/>
<path d="M70.3403 21.5945V20.7386C70.3403 16.4591 70.3403 13.8914 69.4844 12.1796C69.4844 11.3237 68.6285 10.4678 67.7726 9.61194C66.0608 9.61194 63.4932 8.75604 59.2137 8.75604C54.9342 8.75604 52.3665 8.75604 50.6547 9.61194C48.9429 10.4678 48.087 11.3237 47.2311 12.1796C47.2311 13.8914 46.3752 16.4591 46.3752 20.7386V50.6949L70.3403 31.8652V21.5945Z" fill="white"/>
<path d="M109.711 65.2452V107.184C109.711 111.464 109.711 114.031 108.856 115.743C108.856 117.455 108 118.311 106.288 118.311C104.576 118.311 102.008 119.167 97.7289 119.167C93.4494 119.167 90.8817 119.167 89.1699 118.311C87.4581 118.311 86.6022 117.455 86.6022 115.743C86.6022 114.031 85.7463 111.464 85.7463 107.184V46.4155L109.711 65.2452Z" fill="white"/>
<path d="M85.7463 21.5945V20.7386C85.7463 16.4591 85.7463 13.8914 86.6022 12.1796C86.6022 10.4678 87.4581 9.61194 89.1699 9.61194C90.8817 9.61194 93.4494 8.75604 97.7289 8.75604C102.008 8.75604 104.576 8.75604 106.288 9.61194C108 9.61194 108.856 10.4678 108.856 12.1796C108.856 13.8914 109.711 16.4591 109.711 20.7386V50.6949L85.7463 31.8652V21.5945Z" fill="white"/>
<path d="M240.664 100.337V121.734H164.489V13.0355H186.742V100.337H240.664Z" fill="white"/>
<path d="M253.502 20.7386C253.502 13.8914 259.493 7.90015 266.34 7.90015C273.188 7.90015 279.179 13.8914 279.179 20.7386C279.179 27.5858 273.188 33.577 266.34 33.577C259.493 33.577 253.502 28.4417 253.502 20.7386ZM277.467 121.734H256.07V43.8478H277.467V121.734Z" fill="white"/>
<path d="M380.175 82.3631C380.175 106.328 363.057 123.446 343.371 123.446C333.1 123.446 324.541 119.167 318.55 111.464L317.694 121.734H298.865V5.33246H320.262V50.695C325.397 44.7037 333.1 41.2801 342.515 41.2801C363.913 41.2801 380.175 58.398 380.175 82.3631ZM358.777 82.3631C358.777 69.5247 350.218 60.9657 338.236 60.9657C326.253 60.9657 317.694 69.5247 317.694 82.3631C317.694 95.2015 326.253 103.76 338.236 103.76C350.218 103.76 358.777 95.2015 358.777 82.3631Z" fill="white"/>
<path d="M447.79 42.9919L442.655 63.5334C439.231 61.8216 435.808 61.8216 433.24 61.8216C423.825 61.8216 415.266 67.8129 415.266 78.9395V121.734H393.013V43.8478H412.699L413.554 54.9744C418.69 46.4155 427.249 41.2801 437.52 41.2801C440.943 41.2801 444.367 42.136 447.79 42.9919Z" fill="white"/>
<path d="M526.533 74.66V121.734H507.703L506.847 111.464C500.856 120.022 490.585 123.446 480.314 123.446C466.62 123.446 452.926 114.887 452.926 98.6251C452.926 80.6513 469.188 73.8041 484.594 73.8041C490.585 73.8041 498.288 74.66 505.135 76.3718V74.66C505.135 64.3893 499.144 59.2539 488.018 59.2539C480.314 59.2539 472.611 61.8216 465.764 66.957L458.061 51.5508C466.62 45.5596 478.603 40.4242 493.153 40.4242C515.406 41.2801 526.533 52.4067 526.533 74.66ZM505.135 90.922C499.144 89.2103 493.153 88.3544 488.018 88.3544C480.314 88.3544 474.323 90.922 474.323 97.7692C474.323 103.76 478.603 106.328 485.45 106.328C495.721 106.328 505.135 100.337 505.135 90.922Z" fill="white"/>
<path d="M599.284 42.9919L594.149 63.5334C590.725 61.8216 587.301 61.8216 584.734 61.8216C575.319 61.8216 566.76 67.8128 566.76 78.9395V121.734H545.363V43.8478H564.192L565.048 54.9744C570.184 47.2713 578.742 42.136 589.013 42.136C592.437 41.2801 596.716 42.136 599.284 42.9919Z" fill="white"/>
<path d="M611.267 20.7386C611.267 13.8914 617.258 7.90015 624.105 7.90015C630.952 7.90015 636.943 13.8914 636.943 20.7386C636.943 27.5858 631.808 33.577 624.105 33.577C616.402 33.577 611.267 28.4417 611.267 20.7386ZM635.232 121.734H613.834V43.8478H635.232V121.734Z" fill="white"/>
<path d="M691.721 105.472C699.424 105.472 705.415 102.905 710.55 97.7692L724.245 111.464C716.542 119.167 704.559 123.446 692.577 123.446C668.611 123.446 649.782 107.184 649.782 82.3631C649.782 58.398 666.044 41.2801 690.865 41.2801C716.542 41.2801 729.38 59.2539 729.38 78.0836C729.38 80.6513 728.524 86.6426 728.524 90.0662H672.035C674.603 99.481 681.45 105.472 691.721 105.472ZM672.035 75.5159H708.839C707.983 66.1011 701.991 60.1098 690.865 60.1098C680.594 60.1098 674.603 66.1011 672.035 75.5159Z" fill="white"/>
<path d="M740.507 113.175L747.354 97.7692C754.201 103.76 767.04 106.328 777.31 106.328C783.302 106.328 791.005 105.472 791.005 98.6251C791.005 94.3456 785.013 92.6339 775.599 90.9221C756.769 87.4985 743.93 84.0749 743.93 67.8129C743.93 47.2714 762.76 42.136 779.022 42.136C791.005 42.136 802.131 45.5596 809.834 51.5508L802.987 66.957C796.996 62.6775 787.581 60.1098 778.166 60.1098C769.607 60.1098 765.328 62.6775 765.328 67.8129C765.328 71.2364 767.895 72.0923 777.31 73.8041C796.14 77.2277 811.546 80.6513 811.546 97.7692C811.546 114.887 796.996 124.302 775.599 124.302C764.472 123.446 749.066 120.023 740.507 113.175Z" fill="white"/>
<path d="M826.952 110.608C826.952 102.905 832.943 96.9133 840.646 96.9133C848.35 96.9133 854.341 102.905 854.341 110.608C854.341 118.311 848.35 124.302 840.646 124.302C832.943 124.302 826.952 117.455 826.952 110.608Z" fill="white"/>
<path d="M869.747 20.7386C869.747 13.8914 875.738 7.90015 882.586 7.90015C889.433 7.90015 895.424 13.8914 895.424 20.7386C895.424 27.5858 889.433 33.577 882.586 33.577C875.738 33.577 869.747 28.4417 869.747 20.7386ZM892.856 121.734H871.459V43.8478H892.856V121.734Z" fill="white"/>
<path d="M908.262 82.3631C908.262 58.398 926.236 41.2801 950.201 41.2801C974.166 41.2801 992.14 58.398 992.14 82.3631C992.14 106.328 974.166 123.446 950.201 123.446C926.236 123.446 908.262 107.184 908.262 82.3631ZM970.743 82.3631C970.743 69.5247 963.04 60.9657 950.201 60.9657C938.219 60.9657 929.66 69.5247 929.66 82.3631C929.66 95.2015 937.363 103.76 950.201 103.76C962.184 103.76 970.743 95.2015 970.743 82.3631Z" fill="white"/>
<path d="M964.014 166.289V160.457H991.49V166.289H981.248V193.912H974.257V166.289H964.014Z" fill="white"/>
<path d="M956.077 172.17H948.922C948.791 171.244 948.524 170.422 948.121 169.703C947.718 168.973 947.201 168.353 946.569 167.841C945.938 167.329 945.208 166.937 944.38 166.665C943.564 166.393 942.676 166.256 941.718 166.256C939.986 166.256 938.478 166.687 937.193 167.547C935.908 168.396 934.912 169.638 934.204 171.271C933.496 172.894 933.142 174.865 933.142 177.185C933.142 179.57 933.496 181.573 934.204 183.196C934.922 184.819 935.924 186.044 937.209 186.871C938.494 187.699 939.981 188.113 941.669 188.113C942.616 188.113 943.493 187.988 944.299 187.737C945.116 187.487 945.84 187.122 946.471 186.643C947.103 186.153 947.626 185.559 948.04 184.862C948.464 184.165 948.758 183.37 948.922 182.477L956.077 182.51C955.891 184.045 955.429 185.527 954.688 186.953C953.958 188.369 952.973 189.638 951.731 190.759C950.501 191.87 949.031 192.752 947.321 193.406C945.622 194.048 943.7 194.369 941.555 194.369C938.571 194.369 935.903 193.694 933.55 192.344C931.209 190.993 929.358 189.039 927.996 186.479C926.646 183.92 925.971 180.822 925.971 177.185C925.971 173.536 926.657 170.433 928.029 167.874C929.401 165.314 931.263 163.365 933.616 162.026C935.968 160.675 938.614 160 941.555 160C943.493 160 945.29 160.272 946.945 160.817C948.611 161.361 950.087 162.156 951.372 163.202C952.657 164.236 953.702 165.505 954.508 167.008C955.325 168.511 955.848 170.231 956.077 172.17Z" fill="white"/>
<path d="M894.253 193.912V160.457H916.795V166.289H901.326V174.261H915.635V180.092H901.326V188.08H916.861V193.912H894.253Z" fill="white"/>
<path d="M877.273 160.457H884.264V183.784C884.264 185.94 883.78 187.813 882.811 189.403C881.852 190.993 880.518 192.218 878.808 193.079C877.099 193.939 875.111 194.369 872.846 194.369C870.831 194.369 869.002 194.015 867.357 193.307C865.724 192.589 864.428 191.5 863.47 190.04C862.511 188.57 862.038 186.724 862.049 184.503H869.089C869.111 185.385 869.29 186.142 869.628 186.773C869.977 187.394 870.45 187.873 871.049 188.211C871.659 188.538 872.378 188.701 873.205 188.701C874.077 188.701 874.812 188.516 875.411 188.145C876.021 187.764 876.483 187.209 876.799 186.479C877.115 185.75 877.273 184.851 877.273 183.784V160.457Z" fill="white"/>
<path d="M858.179 177.185C858.179 180.833 857.487 183.937 856.104 186.496C854.732 189.055 852.859 191.01 850.485 192.36C848.122 193.7 845.464 194.369 842.513 194.369C839.54 194.369 836.872 193.694 834.509 192.344C832.146 190.993 830.278 189.039 828.906 186.479C827.534 183.92 826.848 180.822 826.848 177.185C826.848 173.536 827.534 170.433 828.906 167.874C830.278 165.314 832.146 163.365 834.509 162.026C836.872 160.675 839.54 160 842.513 160C845.464 160 848.122 160.675 850.485 162.026C852.859 163.365 854.732 165.314 856.104 167.874C857.487 170.433 858.179 173.536 858.179 177.185ZM851.007 177.185C851.007 174.821 850.654 172.829 849.946 171.206C849.249 169.583 848.263 168.353 846.989 167.514C845.715 166.676 844.223 166.256 842.513 166.256C840.803 166.256 839.311 166.676 838.037 167.514C836.763 168.353 835.772 169.583 835.064 171.206C834.367 172.829 834.019 174.821 834.019 177.185C834.019 179.548 834.367 181.541 835.064 183.163C835.772 184.786 836.763 186.017 838.037 186.855C839.311 187.694 840.803 188.113 842.513 188.113C844.223 188.113 845.715 187.694 846.989 186.855C848.263 186.017 849.249 184.786 849.946 183.163C850.654 181.541 851.007 179.548 851.007 177.185Z" fill="white"/>
<path d="M793.108 193.912V160.457H806.307C808.834 160.457 810.99 160.909 812.776 161.813C814.573 162.706 815.94 163.975 816.876 165.619C817.824 167.253 818.297 169.175 818.297 171.386C818.297 173.607 817.818 175.518 816.86 177.119C815.901 178.709 814.513 179.929 812.694 180.778C810.887 181.628 808.698 182.052 806.128 182.052H797.29V176.368H804.984C806.334 176.368 807.456 176.183 808.349 175.812C809.242 175.442 809.906 174.887 810.342 174.146C810.789 173.406 811.012 172.485 811.012 171.386C811.012 170.275 810.789 169.338 810.342 168.576C809.906 167.814 809.237 167.236 808.333 166.844C807.44 166.441 806.313 166.24 804.951 166.24H800.182V193.912H793.108ZM811.175 178.687L819.49 193.912H811.682L803.547 178.687H811.175Z" fill="white"/>
<path d="M759.185 193.912V160.457H772.384C774.921 160.457 777.083 160.942 778.869 161.911C780.655 162.869 782.016 164.203 782.953 165.913C783.9 167.612 784.374 169.572 784.374 171.794C784.374 174.016 783.895 175.976 782.936 177.675C781.978 179.373 780.59 180.697 778.771 181.644C776.963 182.592 774.774 183.065 772.204 183.065H763.792V177.397H771.061C772.422 177.397 773.544 177.163 774.426 176.694C775.319 176.215 775.983 175.556 776.419 174.718C776.865 173.868 777.088 172.894 777.088 171.794C777.088 170.683 776.865 169.714 776.419 168.886C775.983 168.048 775.319 167.4 774.426 166.942C773.533 166.474 772.4 166.24 771.028 166.24H766.258V193.912H759.185Z" fill="white"/>
<path d="M710.071 193.912V160.457H723.27C725.797 160.457 727.953 160.909 729.739 161.813C731.536 162.706 732.902 163.975 733.839 165.619C734.786 167.253 735.26 169.175 735.26 171.386C735.26 173.607 734.781 175.518 733.823 177.119C732.864 178.709 731.476 179.929 729.657 180.778C727.849 181.628 725.661 182.052 723.09 182.052H714.253V176.368H721.947C723.297 176.368 724.419 176.183 725.312 175.812C726.205 175.442 726.869 174.887 727.305 174.146C727.751 173.406 727.975 172.485 727.975 171.386C727.975 170.275 727.751 169.338 727.305 168.576C726.869 167.814 726.2 167.236 725.296 166.844C724.403 166.441 723.276 166.24 721.914 166.24H717.144V193.912H710.071ZM728.138 178.687L736.453 193.912H728.644L720.51 178.687H728.138Z" fill="white"/>
<path d="M677.287 193.912H669.708L681.257 160.457H690.372L701.904 193.912H694.325L685.945 168.102H685.684L677.287 193.912ZM676.814 180.762H694.717V186.283H676.814V180.762Z" fill="white"/>
<path d="M661.537 160.457V193.912H655.428L640.873 172.856H640.628V193.912H633.555V160.457H639.762L654.202 181.497H654.496V160.457H661.537Z" fill="white"/>
<path d="M624.175 177.185C624.175 180.833 623.484 183.937 622.101 186.496C620.728 189.055 618.855 191.01 616.481 192.36C614.118 193.7 611.461 194.369 608.51 194.369C605.537 194.369 602.869 193.694 600.505 192.344C598.142 190.993 596.275 189.039 594.902 186.479C593.53 183.92 592.844 180.822 592.844 177.185C592.844 173.536 593.53 170.433 594.902 167.874C596.275 165.314 598.142 163.365 600.505 162.026C602.869 160.675 605.537 160 608.51 160C611.461 160 614.118 160.675 616.481 162.026C618.855 163.365 620.728 165.314 622.101 167.874C623.484 170.433 624.175 173.536 624.175 177.185ZM617.004 177.185C617.004 174.821 616.65 172.829 615.942 171.206C615.245 169.583 614.26 168.353 612.986 167.514C611.711 166.676 610.219 166.256 608.51 166.256C606.8 166.256 605.308 166.676 604.034 167.514C602.76 168.353 601.769 169.583 601.061 171.206C600.364 172.829 600.015 174.821 600.015 177.185C600.015 179.548 600.364 181.541 601.061 183.163C601.769 184.786 602.76 186.017 604.034 186.855C605.308 187.694 606.8 188.113 608.51 188.113C610.219 188.113 611.711 187.694 612.986 186.855C614.26 186.017 615.245 184.786 615.942 183.163C616.65 181.541 617.004 179.548 617.004 177.185Z" fill="white"/>
<path d="M577.298 170.079C577.168 168.761 576.607 167.737 575.616 167.008C574.625 166.278 573.28 165.913 571.581 165.913C570.427 165.913 569.452 166.077 568.657 166.403C567.862 166.719 567.252 167.16 566.827 167.727C566.414 168.293 566.207 168.935 566.207 169.654C566.185 170.253 566.31 170.776 566.582 171.222C566.866 171.669 567.252 172.055 567.742 172.382C568.232 172.698 568.799 172.976 569.441 173.215C570.084 173.444 570.77 173.64 571.499 173.803L574.505 174.522C575.964 174.849 577.304 175.284 578.523 175.829C579.743 176.373 580.8 177.043 581.693 177.838C582.586 178.633 583.277 179.57 583.767 180.648C584.268 181.726 584.524 182.962 584.535 184.356C584.524 186.403 584.001 188.178 582.967 189.681C581.943 191.173 580.462 192.333 578.523 193.161C576.596 193.977 574.271 194.386 571.548 194.386C568.848 194.386 566.495 193.972 564.492 193.144C562.499 192.317 560.941 191.091 559.82 189.469C558.709 187.835 558.126 185.815 558.072 183.408H564.916C564.992 184.53 565.314 185.467 565.88 186.218C566.457 186.959 567.225 187.519 568.183 187.901C569.153 188.271 570.247 188.456 571.467 188.456C572.665 188.456 573.705 188.282 574.587 187.933C575.48 187.585 576.171 187.1 576.661 186.479C577.151 185.859 577.396 185.145 577.396 184.339C577.396 183.588 577.173 182.956 576.727 182.445C576.291 181.933 575.648 181.497 574.799 181.138C573.961 180.778 572.931 180.452 571.712 180.158L568.069 179.243C565.248 178.557 563.021 177.484 561.388 176.025C559.754 174.566 558.943 172.6 558.954 170.128C558.943 168.102 559.482 166.333 560.571 164.819C561.671 163.305 563.179 162.124 565.096 161.274C567.013 160.425 569.191 160 571.63 160C574.113 160 576.28 160.425 578.131 161.274C579.994 162.124 581.442 163.305 582.477 164.819C583.511 166.333 584.045 168.086 584.077 170.079H577.298Z" fill="white"/>
<path d="M511.58 193.912H504L515.549 160.457H524.664L536.197 193.912H528.617L520.237 168.102H519.976L511.58 193.912ZM511.106 180.762H529.009V186.283H511.106V180.762Z" fill="white"/>
</svg>
