<?xml version="1.0" encoding="UTF-8"?>
<svg id="Layer_1" data-name="Layer 1" xmlns="http://www.w3.org/2000/svg" version="1.1" viewBox="0 0 1000 200">
  <defs>
    <style>
      .cls-1 {
        fill: #fff;
        stroke-width: 0px;
      }
    </style>
  </defs>
  <g>
    <g>
      <path class="cls-1" d="M31.8249021,20.7385657c0-4.2794799,0-6.8471694-.8558952-8.5589597,0-1.7117924-.8558952-2.5676875-2.5676875-2.5676875s-4.2794799-.8558952-8.5589597-.8558952-6.8471679,0-8.5589597.8558952c-.8558967.8558972-1.7117927,1.7117924-2.5676887,2.5676875,0,1.7117903-.855896,4.2794799-.855896,8.5589597v59.9127181l23.9650869-18.8297098V20.7385657Z"/>
      <path class="cls-1" d="M8.7157112,96.057413v12.8384396c0,4.2794799,0,6.8471613.855896,8.5589597,0,1.7117985.8558961,2.5676814,2.5676879,2.5676814s4.2794799.8558992,8.5589597.8558992,6.8471674,0,8.5589597-.8558992c1.7117924,0,2.5676875-.8558992,2.5676875-2.5676814,0-1.7117985.8558952-4.2794799.8558952-8.5589597v-30.8122583l-23.965086,17.9738187Z"/>
      <path class="cls-1" d="M47.2310292,65.2451547v41.9388994c0,4.2794799,0,6.8471613.8558952,8.5589597,0,1.7117985.8558952,2.5676814,2.5676896,2.5676814,1.7117903,0,4.2794799.8558992,8.5589597.8558992s6.8471694,0,8.5589597-.8558992c1.7117903,0,2.5676896-.8558992,2.5676896-2.5676814,0-1.7117985.8558952-4.2794799.8558952-8.5589597v-60.7686092l-23.9650889,18.8297098Z"/>
      <path class="cls-1" d="M70.3402229,21.594465v-.8558992c0-4.2794799,0-6.8471694-.8558952-8.5589597-.0000041-.8558952-.8558992-1.7117903-1.7117944-2.5676855-1.7117903,0-4.2794799-.8558952-8.5589597-.8558952s-6.8471694,0-8.5589597.8558952c-1.7117903.8558952-2.5676896,1.7117903-3.4235847,2.5676855,0,1.7117903-.8558952,4.2794799-.8558952,8.5589597v29.9563591l23.9650889-18.8297098v-10.2707501Z"/>
      <path class="cls-1" d="M109.7114328,65.2451547v41.9388994c0,4.2794799,0,6.8471613-.8558992,8.5589597,0,1.7117985-.8558992,2.5676814-2.5676896,2.5676814s-4.2794799.8558992-8.5589597.8558992-6.8471694,0-8.5589597-.8558992c-1.7117903,0-2.5676896-.8558992-2.5676896-2.5676814,0-1.7117985-.8558992-4.2794799-.8558992-8.5589597v-60.7686092l23.9650971,18.8297098Z"/>
      <path class="cls-1" d="M85.7463521,21.594465v-.8558992c0-4.2794799,0-6.8471694.8558992-8.5589597,0-1.7117924.8558992-2.5676875,2.5676896-2.5676875s4.2794799-.8558952,8.5589597-.8558952,6.8471694,0,8.5589597.8558952c1.7117903,0,2.5676896.8558952,2.5676896,2.5676875,0,1.7117903.8558992,4.2794799.8558992,8.5589597v29.9563591l-23.9650971-18.8297098v-10.2707501Z"/>
    </g>
    <g>
      <path class="cls-1" d="M240.6635265,100.3368929v21.3973993h-76.1747384V13.0355052h22.2532986v87.3013877h53.9214398Z"/>
      <path class="cls-1" d="M253.5019661,20.7385657c0-6.8471694,5.9912783-12.8384396,12.8384396-12.8384396s12.8384396,5.9912702,12.8384396,12.8384396-5.9912783,12.8384396-12.8384396,12.8384396c-6.8471776,0-12.8384396-5.135375-12.8384396-12.8384396ZM277.4670469,121.7342922h-21.3973993V43.8477595h21.3973993v77.8865328Z"/>
      <path class="cls-1" d="M380.1745637,82.3630742c0,23.9650889-17.1179195,41.0830165-36.8035203,41.0830165-10.2707582,0-18.8297179-4.2794799-24.8209963-11.9825404l-.8558829,10.2707419h-18.8297179V5.3324407h21.3973993v45.3624923c5.1353628-5.9912783,12.8384396-9.4148631,22.2532823-9.4148631,21.3973993,0,37.6594359,17.1179236,37.6594359,41.0830043ZM358.7771644,82.3630742c0-12.8384396-8.5589597-21.3973993-20.5415164-21.3973993s-20.5415164,8.5589597-20.5415164,21.3973993,8.5589597,21.3973993,20.5415164,21.3973993,20.5415164-8.5589597,20.5415164-21.3973993Z"/>
      <path class="cls-1" d="M447.7903587,42.9918643l-5.1353628,20.5415083c-3.423597-1.7117985-6.8471939-1.7117985-9.4148753-1.7117985-9.4148426,0-17.9738024,5.9912702-17.9738024,17.1179195v42.7947987h-22.2533149V43.8477595h19.6856009l.8558829,11.1266452c5.1353954-8.5589597,13.6943552-13.6943348,23.9651134-13.6943348,3.4235643,0,6.8471613.8558952,10.2707582,1.7117944Z"/>
      <path class="cls-1" d="M526.5327621,74.6600137v47.0742785h-18.8297179l-.8558829-10.2707501c-5.9912783,8.5589516-16.2620366,11.9825485-26.5327621,11.9825485-13.6943225,0-27.3886777-8.5589597-27.3886777-24.82098,0-17.9738187,16.2620366-24.82098,31.6681576-24.82098,5.9912783,0,13.6943225.8558992,20.5415164,2.5676896v-1.7117903c0-10.2707501-5.9912783-15.4061292-17.1179195-15.4061292-7.7030768,0-15.406121,2.5676896-22.2532823,7.7030605l-7.7030768-15.4061292c8.5589597-5.9912702,20.5415164-11.1266493,35.0917219-11.1266493,22.2532823.855887,33.3799234,11.9825322,33.3799234,34.2358308ZM505.1353628,90.9220339c-5.9912783-1.7117903-11.9825567-2.5676896-17.1179195-2.5676896-7.7030768,0-13.6943225,2.5676896-13.6943225,9.414859,0,5.9912702,4.2794799,8.5589597,11.1266411,8.5589597,10.2707582,0,19.6856009-5.9912702,19.6856009-15.4061292Z"/>
      <path class="cls-1" d="M599.2839199,42.9918643l-5.1353628,20.5415083c-3.423597-1.7117985-6.8471939-1.7117985-9.4148426-1.7117985-9.4148426,0-17.9738024,5.9912702-17.9738024,17.1179195v42.7947987h-21.3973993V43.8477595h18.8296853l.8558829,11.1266452c5.1353628-7.7030605,13.6943225-12.8384396,23.9651134-12.8384396,3.423597-.8558952,7.7030768,0,10.2707256.8558992Z"/>
      <path class="cls-1" d="M611.2664766,20.7385657c0-6.8471694,5.9912457-12.8384396,12.8384396-12.8384396s12.8384396,5.9912702,12.8384396,12.8384396-5.1353628,12.8384396-12.8384396,12.8384396-12.8384396-5.135375-12.8384396-12.8384396ZM635.2315899,121.7342922h-21.3973993V43.8477595h21.3973993v77.8865328Z"/>
      <path class="cls-1" d="M691.7207111,105.472272c7.7030768,0,13.6943225-2.5676896,18.8296853-7.7030605l13.6943225,13.6943388c-7.7030768,7.7030605-19.6856335,11.9825404-31.6681249,11.9825404-23.9651134,0-42.7947987-16.2620202-42.7947987-41.0830084,0-23.9650889,16.2620366-41.0830084,41.0830329-41.0830084,25.6768792,0,38.5153188,17.9738187,38.5153188,36.8035285,0,2.5676896-.8558829,8.5589597-.8558829,11.9825404h-56.4891212c2.5676487,9.4148508,9.4147773,15.4061292,19.6855682,15.4061292ZM672.0350776,75.5159129h36.803553c-.8558829-9.414859-6.8471939-15.4061292-17.9738024-15.4061292-10.2707909,0-16.2620366,5.9912702-18.8297506,15.4061292Z"/>
      <path class="cls-1" d="M740.5067555,113.1753325l6.8471939-15.4061292c6.8471939,5.9912702,19.6856335,8.5589597,29.9563591,8.5589597,5.9912457,0,13.6943225-.8558992,13.6943225-7.7030605,0-4.2794799-5.9912457-5.9912702-15.4061536-7.7030605-18.8296853-3.4235888-31.6681249-6.8471694-31.6681249-23.1091978,0-20.5415083,18.8296853-25.6768792,35.0917219-25.6768792,11.9825567,0,23.1091652,3.4235806,30.812242,9.414859l-6.8471939,15.4061292c-5.9912457-4.2794799-15.4061536-6.8471694-24.8209963-6.8471694-8.5589597,0-12.8384396,2.5676896-12.8384396,7.7030605,0,3.4235806,2.567714,4.2794799,11.9825567,5.9912702,18.8296853,3.4235806,34.2358389,6.8471694,34.2358389,23.9650889s-14.5502054,26.5327703-35.9476048,26.5327703c-11.1266085-.8558829-26.5327621-4.2794799-35.0917219-11.1266411Z"/>
      <path class="cls-1" d="M826.9522358,110.607643c0-7.7030605,5.9912457-13.6943388,13.6943225-13.6943388s13.6943225,5.9912702,13.6943225,13.6943388-5.9912457,13.6943307-13.6943225,13.6943307-13.6943225-6.8471613-13.6943225-13.6943307Z"/>
      <path class="cls-1" d="M869.7470345,20.7385657c0-6.8471694,5.9912457-12.8384396,12.8384396-12.8384396s12.8384396,5.9912702,12.8384396,12.8384396-5.9912457,12.8384396-12.8384396,12.8384396-12.8384396-5.135375-12.8384396-12.8384396ZM892.8562649,121.7342922h-21.3973993V43.8477595h21.3973993v77.8865328Z"/>
      <path class="cls-1" d="M908.2623533,82.3630742c0-23.9650889,17.9738024-41.0830084,41.9389158-41.0830084s41.9389158,17.1179195,41.9389158,41.0830084-17.9738024,41.0830165-41.9389158,41.0830165-41.9389158-16.2620284-41.9389158-41.0830165ZM970.7427855,82.3630742c0-12.8384396-7.7030768-21.3973993-20.5415164-21.3973993-11.9825567,0-20.5415164,8.5589597-20.5415164,21.3973993s7.7030768,21.3973993,20.5415164,21.3973993c11.9825567,0,20.5415164-8.5589597,20.5415164-21.3973993Z"/>
    </g>
  </g>
  <g>
    <path class="cls-1" d="M478.439279,186.4993372h-14.0293496l-2.8345789,7.5438884h-7.4470389l13.2113168-33.6327369h8.1682222l13.2130462,33.6327369h-7.4470389l-2.8345789-7.5438884ZM476.0370642,179.9654512l-4.61246-12.3483181-4.61246,12.3483181h9.22492Z"/>
    <path class="cls-1" d="M536.0319037,166.8976793h-10.570437v27.1455463h-6.9679795v-27.1455463h-10.5687075v-6.4871906h28.107124v6.4871906Z"/>
    <path class="cls-1" d="M550.0508766,194.0432256h-7.0146748v-33.6327369h7.0146748v33.6327369Z"/>
    <path class="cls-1" d="M590.5495551,177.2277219c0,10.2816178-7.5438884,16.8155037-17.6802319,16.8155037h-13.1179261v-33.6327369h13.1179261c10.1363435,0,17.6802319,6.4871906,17.6802319,16.8172332ZM583.2460611,177.2277219c0-6.2467962-4.0832464-10.2833472-10.3767379-10.2833472h-6.1032513v20.564965h6.1032513c6.2934915,0,10.3767379-4.036551,10.3767379-10.2816178Z"/>
    <path class="cls-1" d="M623.6427017,187.5577644v6.4854612h-25.177425v-33.6327369h24.7917563v6.4871906h-17.7770815v6.8694005h17.0092028v6.5356154h-17.0092028v7.2550692h18.1627502Z"/>
    <path class="cls-1" d="M655.2000911,187.5577644v6.4854612h-23.6399384v-33.6327369h7.0146748v27.1472758h16.6252635Z"/>
    <path class="cls-1" d="M669.2207934,194.0432256h-7.0146748v-33.6327369h7.0146748v33.6327369Z"/>
    <path class="cls-1" d="M685.9359887,166.8976793v7.9260983h15.6152611v6.5356154h-15.6152611v12.6838326h-7.0146748v-33.6327369h24.0238777v6.4871906h-17.0092028Z"/>
    <path class="cls-1" d="M736.3288868,166.8976793h-10.570437v27.1455463h-6.9679795v-27.1455463h-10.5687075v-6.4871906h28.107124v6.4871906Z"/>
    <path class="cls-1" d="M784.8401364,172.0376235c0,6.9195547-4.8528544,11.6271348-12.7806822,11.6271348h-6.8227052v10.3784673h-7.0146748v-33.6327369h13.83738c7.9278277,0,12.7806822,4.7560049,12.7806822,11.6271348ZM777.5850671,172.0376235c0-3.266943-1.9698507-5.0932488-5.620733-5.0932488h-6.7275851v10.1864977h6.7275851c3.6508823,0,5.620733-1.8263059,5.620733-5.0932488Z"/>
    <path class="cls-1" d="M804.3380268,181.7917571h-4.5173399v12.2514685h-7.0146748v-33.6327369h15.0393521c7.2550692,0,11.6755596,4.3720656,11.6755596,10.6672865,0,5.0448241-2.8345789,8.887676-7.7358581,10.233193l8.7441311,12.7322574h-8.4086166l-7.7825534-12.2514685ZM799.820687,175.2578711h7.8327076c3.0265485,0,4.61246-1.4423666,4.61246-4.1334006,0-2.7377293-1.5859114-4.1800959-4.61246-4.1800959h-7.8327076v8.3134965Z"/>
    <path class="cls-1" d="M825.4685241,177.2277219c0-10.2833472,7.4954637-17.4415669,17.6335366-17.4415669s17.6335366,7.1115244,17.6335366,17.4415669c0,10.2816178-7.4954637,17.4398375-17.6335366,17.4398375s-17.6335366-7.1582197-17.6335366-17.4398375ZM853.480528,177.2277219c0-6.3436458-4.2285207-10.7157113-10.3784673-10.7157113s-10.3300426,4.3720656-10.3300426,10.7157113c0,6.3419163,4.1800959,10.7139819,10.3300426,10.7139819s10.3784673-4.3720656,10.3784673-10.7139819Z"/>
    <path class="cls-1" d="M862.4079815,190.7278579l4.275216-5.2852185c1.2970922,1.6810315,2.6426092,2.4990644,5.2367937,2.4990644,4.1800959,0,5.8628569-2.2586699,5.8628569-8.0713726v-19.4598424h6.8694005v19.4598424c0,8.311767-2.7861541,14.7972282-12.5869831,14.7972282-4.4204903,0-7.5438884-1.2970922-9.6572841-3.9397015Z"/>
    <path class="cls-1" d="M919.1894912,187.5577644v6.4854612h-25.177425v-33.6327369h24.7917563v6.4871906h-17.7770815v6.8694005h17.0092028v6.5356154h-17.0092028v7.2550692h18.1627502Z"/>
    <path class="cls-1" d="M925.3290611,177.2277219c0-10.2833472,7.4954637-17.4415669,17.5384165-17.4415669,6.3419163,0,11.4818605,2.8345789,14.3648641,6.7742804l-6.0530971,3.9397015c-1.7778811-2.4506396-4.7577343-3.9881263-8.311767-3.9881263-6.0064018,0-10.2349225,4.3720656-10.2349225,10.7157113,0,6.2934915,4.1800959,10.7139819,10.1864977,10.7139819,3.6508823,0,6.8694005-1.6343362,8.6957063-4.6608848l5.8611274,4.1316711c-3.0749733,4.61246-8.5037367,7.2550692-14.5568338,7.2550692-10.0429528,0-17.4899917-7.1582197-17.4899917-17.4398375Z"/>
    <path class="cls-1" d="M990.9498221,166.8976793h-10.570437v27.1455463h-6.9679795v-27.1455463h-10.5687075v-6.4871906h28.107124v6.4871906Z"/>
  </g>
</svg>