<?xml version="1.0" encoding="utf-8"?>
<!-- Generator: Adobe Illustrator 22.0.1, SVG Export Plug-In . SVG Version: 6.00 Build 0)  -->
<svg version="1.1" id="Blue" xmlns="http://www.w3.org/2000/svg" xmlns:xlink="http://www.w3.org/1999/xlink" x="0px" y="0px"
	 viewBox="0 0 358 156" style="enable-background:new 0 0 358 156;" xml:space="preserve">
<style type="text/css">
	.st0{fill:#FFFFFF;}
	.st1{fill:#F7924E;}
</style>
<g>
	<path class="st0" d="M61.6,126V83.1c0-4.4,0-4.4,4.6-4.4c4.6,0,4.6,0,4.6,4.4V126c0,4.4,0,4.4-4.6,4.4
		C61.6,130.4,61.6,130.4,61.6,126z"/>
	<path class="st0" d="M83.8,123.5V85.7c0-6.8,0-6.8,6.8-6.8h11c14.7,0,24,7.5,24.9,19.6c0.2,4.2,0.2,6.4,0,10.6
		c-0.9,11.9-10.1,21.3-24.9,21.3h-11C83.8,130.4,83.8,130.4,83.8,123.5z M101.4,121.6c10.1,0,15.4-5.7,16.1-13.6
		c0.2-3.5,0.2-5.3,0-8.8c-0.7-7.9-5.7-11.7-16.1-11.7h-8.6v34.1H101.4z"/>
	<path class="st0" d="M138.8,123.5V85.7c0-6.8,0-6.8,6.8-6.8h25.7c4.4,0,4.4,0,4.4,4.2c0,4.4,0,4.4-4.4,4.4h-23.5v13.2h21.1
		c4.4,0,4.4,0,4.4,4c0,4,0,4-4.4,4h-21.1v13.2h23.5c4.4,0,4.4,0,4.4,4.2c0,4.4,0,4.4-4.4,4.4h-25.7
		C138.8,130.4,138.8,130.4,138.8,123.5z"/>
	<path class="st0" d="M189,123.5V83.3c0-4.4,0-4.4,4.6-4.4c4.6,0,4.6,0,4.6,4.4v38.5h22.7c4.6,0,4.6,0,4.6,4.4c0,4.2,0,4.2-4.6,4.2
		h-25.1C189,130.4,189,130.4,189,123.5z"/>
	<path class="st0" d="M238.3,126V83.1c0-4.4,0-4.4,4.6-4.4c4.6,0,4.6,0,4.6,4.4V126c0,4.4,0,4.4-4.6,4.4
		C238.3,130.4,238.3,130.4,238.3,126z"/>
	<path class="st0" d="M260.5,126V85.7c0-6.8,0-6.8,6.8-6.8h25.7c4.4,0,4.4,0,4.4,4.4c0,4.2,0,4.2-4.4,4.2h-23.3v13.9h21.8
		c4.4,0,4.4,0,4.4,4.2s0,4.2-4.4,4.2h-21.8V126c0,4.4,0,4.4-4.6,4.4C260.5,130.4,260.5,130.4,260.5,126z"/>
	<path class="st0" d="M44,78.9H8.1c-4.6,0-4.6,0-4.6,4.4c0,4.2,0,4.2,4.6,4.2h13.4v9v6.2l9-7v-2.2v-5.9H44c4.6,0,4.6,0,4.6-4.2
		C48.6,78.9,48.6,78.9,44,78.9z"/>
	<path class="st1" d="M21.5,111.2v14.5c0,4.4,0,4.4,4.6,4.4s4.6,0,4.6-4.4v-21.6L21.5,111.2z"/>
	<g>
		<path class="st0" d="M315.1,78.9h35.6c4.6,0,4.6,0,4.6,4.4c0,4.2,0,4.2-4.6,4.2h-13.2v9v6.2l-9-7v-2.2v-5.9h-13.4
			c-4.6,0-4.6,0-4.6-4.2C310.4,78.9,310.4,78.9,315.1,78.9z"/>
		<path class="st1" d="M337.5,111.2v14.5c0,4.4,0,4.4-4.6,4.4c-4.6,0-4.6,0-4.6-4.4v-21.6L337.5,111.2z"/>
	</g>
</g>
<g>
	<path class="st0" d="M5.4,41.2L3.2,48H0.8l6.8-19.2h3.3L17.3,48h-2.7l-2.2-6.8H5.4z M11.9,39l-2.7-8.7l-3,8.7H11.9z"/>
	<path class="st0" d="M40.3,40.4c0,5.4-3.5,7.9-7.3,7.9c-1.4,0-2.7-0.3-3.5-1.1l-1.1-1.4v7.6H26V33.1h2.4v2.4l1.1-1.6
		c0.8-0.8,2.4-1.1,3.8-1.1C37.9,32.8,40.3,36.1,40.3,40.4z M37.6,40.7c0-3.3-1.6-6-4.3-6c-2.4,0-4.6,1.6-4.6,5.7v0.8
		c0,3.8,2.4,5.1,4.6,5.1C35.7,46.3,37.6,44.5,37.6,40.7z"/>
	<path class="st0" d="M50.3,33.1V35c-2.4-0.3-4.3,1.4-4.3,4.6V48h-2.4V33.1H46v2.4l1.4-1.9c0.5-0.5,1.4-0.5,2.2-0.5
		C49.5,32.8,50.1,32.8,50.3,33.1z"/>
	<path class="st0" d="M66.1,40.4c0,4.1-2.4,7.9-7.3,7.9s-7.3-3.5-7.3-7.9c0-4.1,2.4-7.9,7.3-7.9S66.1,36.3,66.1,40.4z M63.3,40.4
		c0-3.5-1.6-6-4.6-6c-3,0-4.6,2.4-4.6,6s1.6,6,4.6,6C61.7,46.3,63.3,43.9,63.3,40.4z"/>
	<path class="st0" d="M71.5,49.1c0,0.5,0,1.4,0,1.9c-0.3,1.9-1.1,2.7-3.5,2.7c-0.5,0-0.8,0-1.1,0v-1.9c1.6,0.3,2.2-0.3,2.2-1.4
		c0-0.3,0-0.8,0-1.4V32.8h2.4V49.1z M71.7,29.8c0,0.8-0.5,1.6-1.6,1.6c-0.8,0-1.6-0.5-1.6-1.6s0.5-1.6,1.6-1.6
		C71.2,28.2,71.7,29,71.7,29.8z"/>
	<path class="st0" d="M88,41.2H77.4c0.3,3.8,2.2,5.1,4.3,5.1c1.9,0,3.5-1.1,3.8-3.3H88c-0.5,3.5-3.5,5.1-6.5,5.1
		c-3.8,0-6.8-2.4-6.8-7.6c0-4.9,3-7.9,7-7.9s6.2,3,6.2,7.3C88,40.4,88,40.7,88,41.2z M77.4,39.3h8.4c-0.3-3-1.6-4.9-4.1-4.9
		C79.3,34.7,77.7,36.3,77.4,39.3z"/>
	<path class="st0" d="M103.4,38.2H101c-0.5-2.4-1.9-3.5-3.8-3.5c-2.4,0-4.3,1.9-4.3,5.7c0,4.3,1.9,6,4.1,6c1.9,0,3.3-1.1,3.8-3.3
		h2.4c-0.8,3.5-3.3,5.1-6.5,5.1c-3.8,0-6.5-2.4-6.5-7.9c0-4.9,3.3-7.9,7-7.9C100.7,32.8,102.9,35,103.4,38.2z"/>
	<path class="st0" d="M109.4,43.6c0,0.5,0,0.8,0,1.1c0,1.4,0.8,1.6,2.4,1.6V48c-0.8,0-1.4,0.3-1.9,0.3c-1.9,0-2.7-0.8-3-2.7
		c0-0.3,0-1.1,0-1.9V35h-1.9v-1.6h1.9v-3.5h2.4v3.5h2.7v1.9h-2.7L109.4,43.6L109.4,43.6z"/>
	<path class="st0" d="M124.3,31.7v1.6h3v1.9h-3V48h-2.4V35h-1.6v-1.6h1.6V32c0-0.5,0-1.4,0-1.9c0.3-2.2,1.6-3.3,3.8-3.3
		c0.5,0,1.1,0,1.6,0.3V29c-1.9-0.3-3,0-3.3,1.4C124.3,30.6,124.3,31.4,124.3,31.7z"/>
	<path class="st0" d="M137,33.1V35c-2.4-0.3-4.3,1.4-4.3,4.6V48h-2.4V33.1h2.4v2.4l1.4-1.9c0.5-0.5,1.4-0.5,2.2-0.5
		C136.2,32.8,136.8,32.8,137,33.1z"/>
	<path class="st0" d="M152.7,40.4c0,4.1-2.4,7.9-7.3,7.9c-4.9,0-7.3-3.5-7.3-7.9c0-4.1,2.4-7.9,7.3-7.9
		C150.3,32.5,152.7,36.3,152.7,40.4z M150,40.4c0-3.5-1.6-6-4.6-6c-3,0-4.6,2.4-4.6,6s1.6,6,4.6,6C148.4,46.3,150,43.9,150,40.4z"/>
	<path class="st0" d="M175.5,38.8v8.9h-2.4v-7.6c0-1.4,0-2.2,0-3c-0.3-1.6-1.4-2.4-3-2.4c-1.9,0-3.3,1.4-3.3,6V48h-2.4v-7.9
		c0-1.4,0-2.2,0-3c-0.3-1.6-1.4-2.4-3-2.4c-1.9,0-3.3,1.4-3.3,6V48h-2.4V33.1h2.4v2.2l0.8-1.6c0.8-0.5,1.9-0.8,3.3-0.8
		c2.2,0,3.8,1.1,4.3,2.7l1.4-1.9c0.8-0.5,1.9-0.8,3.3-0.8c2.7,0,4.1,1.6,4.6,3.5C175.5,37.1,175.5,37.7,175.5,38.8z"/>
</g>
</svg>
