<?xml version="1.0" encoding="UTF-8" standalone="no"?>
<svg
   xmlns:dc="http://purl.org/dc/elements/1.1/"
   xmlns:cc="http://creativecommons.org/ns#"
   xmlns:rdf="http://www.w3.org/1999/02/22-rdf-syntax-ns#"
   xmlns:svg="http://www.w3.org/2000/svg"
   xmlns="http://www.w3.org/2000/svg"
   viewBox="0 0 405.94666 123.61333"
   height="123.61333"
   width="405.94666"
   xml:space="preserve"
   id="svg2"
   version="1.1"><metadata
     id="metadata8"><rdf:RDF><cc:Work
         rdf:about=""><dc:format>image/svg+xml</dc:format><dc:type
           rdf:resource="http://purl.org/dc/dcmitype/StillImage" /></cc:Work></rdf:RDF></metadata><defs
     id="defs6" /><g
     transform="matrix(1.3333333,0,0,-1.3333333,0,123.61333)"
     id="g10"><g
       transform="scale(0.1)"
       id="g12"><path
         id="path14"
         style="fill:#ffffff;fill-opacity:1;fill-rule:nonzero;stroke:none"
         d="M 215.016,641.039 H 84 L 83.0039,518.031 H -0.00390625 V 400.023 H 83.0039 l -2,-236.015 C 80.0078,49.0039 137.012,3.99609 248.016,3.99609 c 40,0 66.004,5 82,11.00391 v 114.008 c -13.993,-4 -27.996,-7 -52.996,-7 -50,0 -66.004,21 -66.004,73.008 l 2,205.007 h 117 V 518.031 H 214.012 l 1.004,123.008" /><path
         id="path16"
         style="fill:#ffffff;fill-opacity:1;fill-rule:nonzero;stroke:none"
         d="m 512.359,744.047 c -44.004,0 -79.004,-34.004 -79.004,-77.008 0,-44.004 35,-77.008 79.004,-77.008 43,0 79.004,33.004 79.004,77.008 0,43.004 -36.004,77.008 -79.004,77.008" /><path
         id="path18"
         style="fill:#ffffff;fill-opacity:1;fill-rule:nonzero;stroke:none"
         d="M 447.352,11 H 577.359 V 518.031 H 447.352 V 11" /><path
         id="path20"
         style="fill:#ffffff;fill-opacity:1;fill-rule:nonzero;stroke:none"
         d="m 1057.02,262.016 c 0,-91.004 -64.004,-140.008 -128.008,-140.008 -72.012,0 -128.008,56.004 -128.008,143.008 0,86.004 57.004,142.007 128.008,142.007 63,0 126.998,-49.003 128.008,-139.007 z m -2,201.011 c -27,36 -80.012,66.004 -152.012,66.004 -137.016,0 -236.02,-115.008 -236.02,-264.015 C 666.988,116.004 765.992,0 902.012,0 c 87,0 133.008,38.0039 161.008,79.0039 L 1073.02,11 h 112.01 V 741.043 H 1055.02 V 463.027" /><path
         id="path22"
         style="fill:#ffffff;fill-opacity:1;fill-rule:nonzero;stroke:none"
         d="m 1414.63,315.02 c 5.99,62 48.99,106.003 114,106.003 64,0 106.01,-42 107,-106.003 z m 117,214.011 c -151.01,0 -252.01,-112.008 -252.01,-265.015 0,-160.008 102,-264.016 252.01,-264.016 123.01,0 201.01,63.0039 232.01,170.008 h -126.01 c -14,-38 -52,-59.004 -102,-59.004 -71,0 -118.01,47.004 -122.01,114.012 h 353.03 v 40 c 0,180.011 -101.02,264.015 -235.02,264.015" /><path
         id="path24"
         style="fill:#ffffff;fill-opacity:1;fill-rule:nonzero;stroke:none"
         d="m 1871.61,11 h 130 v 730.043 h -130 V 11" /><path
         id="path26"
         style="fill:#ffffff;fill-opacity:1;fill-rule:nonzero;stroke:none"
         d="m 2130.06,11 h 130 v 507.031 h -130 V 11" /><path
         id="path28"
         style="fill:#ffffff;fill-opacity:1;fill-rule:nonzero;stroke:none"
         d="m 2195.06,744.047 c -44.01,0 -79.01,-34.004 -79.01,-77.008 0,-44.004 35,-77.008 79.01,-77.008 43,0 79,33.004 79,77.008 0,43.004 -36,77.008 -79,77.008" /><path
         id="path30"
         style="fill:#ffffff;fill-opacity:1;fill-rule:nonzero;stroke:none"
         d="m 3044.59,400.023 v 118.008 h -116.01 l 1.01,123.008 h -131.02 l -0.99,-123.008 h -112.97 -28.21 -87.81 v 50.004 c 0,46 24.01,70 67.01,70 21,0 38,-5 52.01,-11 v 116.012 c -14.01,4 -38.01,9 -67.01,9 -119.01,0 -183.01,-62.004 -183.01,-181.012 v -53.004 h -80 V 400.023 h 80 V 11 h 131 v 389.023 h 87.81 28.21 112.97 l -2.01,-236.015 C 2794.58,49.0039 2851.58,3.99609 2962.59,3.99609 c 40,0 66,5 82,11.00391 v 114.008 c -14,-4 -28,-7 -53,-7 -50,0 -66.01,21 -66.01,73.008 l 2.01,205.007 h 117" /><path
         id="path32"
         style="fill:#ffffff;fill-opacity:1;fill-rule:nonzero;stroke:none"
         d="m 1920.07,880.305 -12.01,36.941 -12.83,-36.941 z m -27.71,-8.399 -9.72,-29.261 h -11.03 l 29.75,82.753 h 13.91 l 28.54,-82.753 h -11.16 l -9.83,29.261 h -30.46" /><path
         id="path34"
         style="fill:#ffffff;fill-opacity:1;fill-rule:nonzero;stroke:none"
         d="m 2058.42,900.93 c 0,9.597 -5.16,13.918 -11.04,15.234 -2.27,0.481 -5.51,0.602 -9.24,0.602 h -16.31 v -31.664 h 16.31 c 3.73,0 6.97,0.121 9.24,0.601 5.88,1.317 11.04,5.633 11.04,15.227 z m 11.03,0 c 0,-14.028 -9.47,-22.426 -21.46,-23.985 -3.72,-0.476 -6.61,-0.476 -10.8,-0.476 h -15.36 v -33.824 h -10.31 v 82.753 h 25.67 c 4.19,0 7.08,0 10.8,-0.476 13.18,-1.68 21.46,-9.957 21.46,-23.992" /><path
         id="path36"
         style="fill:#ffffff;fill-opacity:1;fill-rule:nonzero;stroke:none"
         d="m 2123.83,886.66 c 3.71,0 5.76,0 8.03,0.242 7.68,0.719 13.31,5.637 13.31,14.993 0,9.23 -4.43,13.429 -12.11,14.628 -2.28,0.36 -4.56,0.481 -8.28,0.481 H 2108 V 886.66 Z m 33.81,-44.015 h -11.39 c -2.28,5.277 -3.36,10.558 -4.44,20.746 -0.95,8.515 -4.19,14.156 -12.35,14.754 -1.92,0.121 -3.95,0.121 -5.87,0.121 H 2108 v -35.621 h -10.33 v 82.753 h 27.11 c 4.2,0 7.08,0 10.8,-0.476 12,-1.559 20.63,-8.156 20.63,-22.07 0,-10.914 -7.07,-17.149 -14.75,-19.547 6.71,-3.121 9.94,-10.676 10.67,-18.95 0.95,-10.796 2.16,-17.273 5.51,-21.71" /><path
         id="path38"
         style="fill:#ffffff;fill-opacity:1;fill-rule:nonzero;stroke:none"
         d="m 2246.68,884.023 c 0,21.586 -10.2,34.903 -27.58,34.903 -17.39,0 -27.59,-13.317 -27.59,-34.903 0,-21.472 10.2,-34.902 27.59,-34.902 17.38,0 27.58,13.43 27.58,34.902 z m 11.52,0 c 0,-25.187 -13.91,-43.058 -39.1,-43.058 -25.19,0 -39.1,17.871 -39.1,43.058 0,25.305 13.91,43.055 39.1,43.055 25.19,0 39.1,-17.75 39.1,-43.055" /><path
         id="path40"
         style="fill:#ffffff;fill-opacity:1;fill-rule:nonzero;stroke:none"
         d="m 2335.73,874.305 c 0,-3.114 0,-5.875 -0.24,-9.95 -0.84,-13.914 -9.23,-23.39 -26.74,-23.39 -15.35,0 -24.47,9.476 -24.83,24.945 l -0.11,4.918 h 10.31 l 0.23,-4.918 c 0.61,-11.39 6,-16.789 15.84,-16.789 9.59,0 14.39,6.117 15.11,15.832 0.12,2.399 0.12,5.399 0.12,9.715 v 50.73 h 10.31 v -51.093" /><path
         id="path42"
         style="fill:#ffffff;fill-opacity:1;fill-rule:nonzero;stroke:none"
         d="m 2423.92,842.645 h -55.05 v 82.753 h 53.86 v -8.394 h -43.53 v -28.781 h 39.93 v -8.399 h -39.93 v -28.785 h 44.72 v -8.394" /><path
         id="path44"
         style="fill:#ffffff;fill-opacity:1;fill-rule:nonzero;stroke:none"
         d="m 2520.15,899.012 0.12,-1.196 h -10.31 l -0.24,1.196 c -2.4,11.875 -9.71,19.914 -23.5,19.914 -16.92,0 -27.35,-14.754 -27.35,-34.781 0,-20.391 10.32,-35.024 26.63,-35.024 13.79,0 21.1,8.035 23.5,19.91 l 0.25,1.196 h 10.31 l -0.12,-1.196 c -1.56,-14.996 -12.71,-28.066 -34.54,-28.066 -24.11,0 -37.54,18.473 -37.54,42.695 0,25.188 15.59,43.418 39.1,43.418 20.98,0 32.01,-11.875 33.69,-28.066" /><path
         id="path46"
         style="fill:#ffffff;fill-opacity:1;fill-rule:nonzero;stroke:none"
         d="m 2582.34,917.004 v -74.359 h -10.32 v 74.359 h -29.5 v 8.394 h 69.31 v -8.394 h -29.49" /><path
         id="path48"
         style="fill:#ffffff;fill-opacity:1;fill-rule:nonzero;stroke:none"
         d="m 2688.9,888.223 h 38.74 v -8.399 h -38.74 v -37.179 h -10.31 v 82.753 h 53.85 v -8.394 h -43.54 v -28.781" /><path
         id="path50"
         style="fill:#ffffff;fill-opacity:1;fill-rule:nonzero;stroke:none"
         d="m 2787.18,886.66 c 3.72,0 5.75,0 8.03,0.242 7.68,0.719 13.31,5.637 13.31,14.993 0,9.23 -4.44,13.429 -12.12,14.628 -2.27,0.36 -4.55,0.481 -8.27,0.481 h -16.78 V 886.66 Z m 33.81,-44.015 h -11.38 c -2.29,5.277 -3.36,10.558 -4.45,20.746 -0.95,8.515 -4.19,14.156 -12.35,14.754 -1.91,0.121 -3.95,0.121 -5.88,0.121 h -15.58 v -35.621 h -10.32 v 82.753 h 27.1 c 4.2,0 7.08,0 10.79,-0.476 12,-1.559 20.64,-8.156 20.64,-22.07 0,-10.914 -7.08,-17.149 -14.76,-19.547 6.72,-3.121 9.96,-10.676 10.69,-18.95 0.95,-10.796 2.14,-17.273 5.5,-21.71" /><path
         id="path52"
         style="fill:#ffffff;fill-opacity:1;fill-rule:nonzero;stroke:none"
         d="m 2910.04,884.023 c 0,21.586 -10.2,34.903 -27.59,34.903 -17.39,0 -27.59,-13.317 -27.59,-34.903 0,-21.472 10.2,-34.902 27.59,-34.902 17.39,0 27.59,13.43 27.59,34.902 z m 11.5,0 c 0,-25.187 -13.91,-43.058 -39.09,-43.058 -25.19,0 -39.1,17.871 -39.1,43.058 0,25.305 13.91,43.055 39.1,43.055 25.18,0 39.09,-17.75 39.09,-43.055" /><path
         id="path54"
         style="fill:#ffffff;fill-opacity:1;fill-rule:nonzero;stroke:none"
         d="m 3035.06,842.645 h -10.32 v 42.578 c 0,10.312 0,21.828 0.25,30.82 -2.77,-8.992 -6.59,-20.625 -10.07,-30.703 l -14.64,-42.695 h -12.96 l -14.86,42.933 c -3.36,9.84 -7.2,21.356 -9.84,30.227 0.25,-8.996 0.25,-20.387 0.25,-30.582 v -42.578 h -10.32 v 82.753 h 17.03 l 24.46,-74 24.36,74 h 16.66 v -82.753" /></g></g></svg>